<svg width="28" height="28" viewBox="0 0 28 28" fill="none" xmlns="http://www.w3.org/2000/svg">
<g clip-path="url(#clip0_303:52)">
<path d="M23.528 13.1593C23.5426 12.4662 23.422 11.7768 23.1727 11.1298C22.9238 10.4814 22.5525 9.88685 22.0792 9.37849C21.5889 8.85035 20.9985 8.42488 20.3424 8.12677C19.4229 7.70642 18.4107 7.5481 17.4136 7.66731C17.1751 7.69582 16.9408 7.73978 16.7107 7.7992C16.6051 7.58631 16.485 7.38034 16.3505 7.18131C15.7883 6.3493 15.0063 5.68739 14.0868 5.26704C13.4246 4.96436 12.7251 4.79788 12.0038 4.77257C11.3073 4.74731 10.62 4.85479 9.96386 5.0915C9.31117 5.32556 8.71075 5.68542 8.19662 6.15069C7.66197 6.63461 7.23709 7.21381 6.93611 7.8722C6.65219 8.49329 6.48315 9.19847 6.43397 9.97197C6.3932 10.6185 6.43445 11.3274 6.55707 12.0802C6.75189 13.2719 7.15822 14.6077 7.76189 16.0494C8.76202 18.4391 9.97132 20.3268 10.0236 20.4048L10.336 20.8904C10.4748 21.1049 10.7265 21.22 10.9795 21.1846L11.5511 21.1031C11.6452 21.0898 13.8613 20.7702 16.3247 19.9639C17.81 19.4771 19.086 18.9104 20.1147 18.278C20.7643 17.8782 21.3292 17.4464 21.7896 16.9917C22.3424 16.4484 22.7651 15.8592 23.049 15.2381C23.3518 14.5806 23.5119 13.8803 23.528 13.1593Z" fill="#FBC3C3"/>
</g>
<defs>
<clipPath id="clip0_303:52">
<rect width="21" height="21" fill="white" transform="translate(8.73096) rotate(24.5672)"/>
</clipPath>
</defs>
</svg>
