<svg id="visual" viewBox="0 0 900 675" width="900" height="675" xmlns="http://www.w3.org/2000/svg" xmlns:xlink="http://www.w3.org/1999/xlink" version="1.1"><rect x="0" y="0" width="900" height="675" fill="#000"></rect><defs><linearGradient id="grad1_0" x1="25%" y1="0%" x2="100%" y2="100%"><stop offset="23.333333333333336%" stop-color="#000000" stop-opacity="1"></stop><stop offset="76.66666666666666%" stop-color="#000000" stop-opacity="1"></stop></linearGradient></defs><defs><linearGradient id="grad2_0" x1="0%" y1="0%" x2="75%" y2="100%"><stop offset="23.333333333333336%" stop-color="#000000" stop-opacity="1"></stop><stop offset="76.66666666666666%" stop-color="#000000" stop-opacity="1"></stop></linearGradient></defs><g transform="translate(900, 0)"><path d="M0 281.3C-28.4 255.2 -56.8 229.1 -89.9 217.1C-123 205.1 -160.9 207.3 -191.6 191.6C-222.4 176 -246.1 142.5 -259.8 107.6C-273.6 72.7 -277.4 36.4 -281.2 0L0 0Z" fill="#ffffff"></path></g><g transform="translate(0, 675)"><path d="M0 -281.2C31.2 -262.6 62.4 -243.9 96.1 -231.9C129.7 -219.9 165.9 -214.5 195.2 -195.2C224.4 -175.8 246.7 -142.5 259.8 -107.6C273 -72.8 277.1 -36.4 281.3 0L0 0Z" fill="#ffffff"></path></g></svg>