<svg width="375" height="161" viewBox="0 0 375 161" fill="none" xmlns="http://www.w3.org/2000/svg">
<mask id="mask0_226:290" style="mask-type:alpha" maskUnits="userSpaceOnUse" x="-71" y="-410" width="597" height="563">
<path fill-rule="evenodd" clip-rule="evenodd" d="M341.536 -396.469C403.307 -369.875 454.716 -321.883 485.199 -261.935C518.814 -195.829 536.28 -119.649 518.964 -47.5371C501.027 27.1575 461.27 108.743 389.567 136.306C319.168 163.368 250.372 83.8329 174.955 84.7016C100.01 85.5649 24.5214 184.048 -36.9863 141.219C-98.3734 98.4739 -56.3523 -1.98523 -56.9601 -76.7861C-57.3604 -126.049 -52.6328 -172.355 -39.921 -219.951C-26.6373 -269.688 -20.6459 -325.302 18.3798 -358.876C58.4139 -393.318 115.284 -392.504 167.741 -398.606C226.733 -405.468 286.987 -419.953 341.536 -396.469Z" fill="#CFDBE9"/>
</mask>
<g mask="url(#mask0_226:290)">
<line x1="-31.0005" y1="26.1955" x2="418.001" y2="26.1955" stroke="#EEF5FD"/>
<line x1="-31.0005" y1="71.2833" x2="418.001" y2="71.2833" stroke="#EEF5FD"/>
<line x1="-31.0005" y1="113.462" x2="418.001" y2="113.462" stroke="#EEF5FD"/>
<line x1="30.0046" y1="903.002" x2="30.0046" y2="-486" stroke="#EEF5FD"/>
<line x1="61.0046" y1="903.002" x2="61.0046" y2="-486" stroke="#EEF5FD"/>
<line x1="121.005" y1="903.002" x2="121.005" y2="-486" stroke="#EEF5FD"/>
<line x1="150.005" y1="903.002" x2="150.005" y2="-486" stroke="#EEF5FD"/>
<line x1="181.005" y1="903.002" x2="181.005" y2="-486" stroke="#EEF5FD"/>
<line x1="210.005" y1="903.002" x2="210.005" y2="-486" stroke="#EEF5FD"/>
<line x1="271.005" y1="903.002" x2="271.005" y2="-486" stroke="#EEF5FD"/>
<line x1="301.005" y1="903.002" x2="301.005" y2="-486" stroke="#EEF5FD"/>
<line x1="330.005" y1="903.002" x2="330.005" y2="-486" stroke="#EEF5FD"/>
<line x1="361.005" y1="903.002" x2="361.005" y2="-486" stroke="#EEF5FD"/>
<line x1="241.005" y1="903.002" x2="241.005" y2="-486" stroke="#EEF5FD"/>
<line x1="90.0046" y1="903.002" x2="90.0046" y2="-486" stroke="#EEF5FD"/>
<rect x="-14" y="-410.365" width="389" height="1181.01" fill="#CFDBE9"/>
<line x1="-31.0005" y1="10" x2="418.001" y2="10" stroke="#EEF5FD"/>
<line x1="-31.0005" y1="130" x2="418.001" y2="130" stroke="#EEF5FD"/>
<line x1="-31.0005" y1="99" x2="418.001" y2="99" stroke="#EEF5FD"/>
<line x1="-31.0005" y1="70" x2="418.001" y2="70" stroke="#EEF5FD"/>
<line x1="-40" y1="39.5" x2="409.001" y2="39.5" stroke="#EEF5FD"/>
<line x1="30.0046" y1="882.002" x2="30.0046" y2="-73.0023" stroke="#EEF5FD"/>
<line x1="61.0046" y1="882.002" x2="61.0046" y2="-73.0023" stroke="#EEF5FD"/>
<line x1="121.005" y1="882.002" x2="121.005" y2="-73.0023" stroke="#EEF5FD"/>
<line x1="150.005" y1="882.002" x2="150.005" y2="-73.0023" stroke="#EEF5FD"/>
<line x1="181.005" y1="882.002" x2="181.005" y2="-73.0023" stroke="#EEF5FD"/>
<line x1="210.005" y1="882.002" x2="210.005" y2="-73.0023" stroke="#EEF5FD"/>
<line x1="271.005" y1="882.002" x2="271.005" y2="-73.0023" stroke="#EEF5FD"/>
<line x1="301.005" y1="882.002" x2="301.005" y2="-73.0023" stroke="#EEF5FD"/>
<line x1="330.005" y1="882.002" x2="330.005" y2="-73.0023" stroke="#EEF5FD"/>
<line x1="361.005" y1="882.002" x2="361.005" y2="-73.0023" stroke="#EEF5FD"/>
<line x1="241.005" y1="882.002" x2="241.005" y2="-73.0023" stroke="#EEF5FD"/>
<line x1="90.0046" y1="882.002" x2="90.0046" y2="-73.0023" stroke="#EEF5FD"/>
</g>
</svg>
