<svg width="375" height="812" viewBox="0 0 375 812" fill="none" xmlns="http://www.w3.org/2000/svg">
<g clip-path="url(#clip0)">
<rect width="375" height="812" fill="white"/>
<rect x="-14" width="389" height="812" fill="#CFDBE9"/>
<line x1="-31.0005" y1="31" x2="418.001" y2="31" stroke="#EEF5FD"/>
<line x1="-31.0005" y1="151" x2="418.001" y2="151" stroke="#EEF5FD"/>
<line x1="-31.0005" y1="180" x2="418.001" y2="180" stroke="#EEF5FD"/>
<line x1="-31.0005" y1="211" x2="418.001" y2="211" stroke="#EEF5FD"/>
<line x1="-31.0005" y1="240" x2="418.001" y2="240" stroke="#EEF5FD"/>
<line x1="-31.0005" y1="271" x2="418.001" y2="271" stroke="#EEF5FD"/>
<line x1="-31.0005" y1="300" x2="418.001" y2="300" stroke="#EEF5FD"/>
<line x1="-31.0005" y1="331" x2="418.001" y2="331" stroke="#EEF5FD"/>
<line x1="-31.0005" y1="360" x2="418.001" y2="360" stroke="#EEF5FD"/>
<line x1="-31.0005" y1="391" x2="418.001" y2="391" stroke="#EEF5FD"/>
<line x1="-31.0005" y1="420" x2="418.001" y2="420" stroke="#EEF5FD"/>
<line x1="-31.0005" y1="480" x2="418.001" y2="480" stroke="#EEF5FD"/>
<line x1="-31.0005" y1="511" x2="418.001" y2="511" stroke="#EEF5FD"/>
<line x1="-31.0005" y1="540" x2="418.001" y2="540" stroke="#EEF5FD"/>
<line x1="-31.0005" y1="571" x2="418.001" y2="571" stroke="#EEF5FD"/>
<line x1="-31.0005" y1="600" x2="418.001" y2="600" stroke="#EEF5FD"/>
<line x1="-31.0005" y1="631" x2="418.001" y2="631" stroke="#EEF5FD"/>
<line x1="-31.0005" y1="660" x2="418.001" y2="660" stroke="#EEF5FD"/>
<line x1="-31.0005" y1="691" x2="418.001" y2="691" stroke="#EEF5FD"/>
<line x1="-31.0005" y1="720" x2="418.001" y2="720" stroke="#EEF5FD"/>
<line x1="-31.0005" y1="751" x2="418.001" y2="751" stroke="#EEF5FD"/>
<line x1="-31.0005" y1="780" x2="418.001" y2="780" stroke="#EEF5FD"/>
<line x1="-31.0005" y1="451" x2="418.001" y2="451" stroke="#EEF5FD"/>
<line x1="-31.0005" y1="120" x2="418.001" y2="120" stroke="#EEF5FD"/>
<line x1="-31.0005" y1="91" x2="418.001" y2="91" stroke="#EEF5FD"/>
<line x1="-40" y1="60.5" x2="409.001" y2="60.5" stroke="#EEF5FD"/>
<line x1="30.0046" y1="903.002" x2="30.0046" y2="-52.0023" stroke="#EEF5FD"/>
<line x1="61.0046" y1="903.002" x2="61.0046" y2="-52.0023" stroke="#EEF5FD"/>
<line x1="121.005" y1="903.002" x2="121.005" y2="-52.0023" stroke="#EEF5FD"/>
<line x1="150.005" y1="903.002" x2="150.005" y2="-52.0023" stroke="#EEF5FD"/>
<line x1="181.005" y1="903.002" x2="181.005" y2="-52.0023" stroke="#EEF5FD"/>
<line x1="210.005" y1="903.002" x2="210.005" y2="-52.0023" stroke="#EEF5FD"/>
<line x1="271.005" y1="903.002" x2="271.005" y2="-52.0023" stroke="#EEF5FD"/>
<line x1="301.005" y1="903.002" x2="301.005" y2="-52.0023" stroke="#EEF5FD"/>
<line x1="330.005" y1="903.002" x2="330.005" y2="-52.0023" stroke="#EEF5FD"/>
<line x1="361.005" y1="903.002" x2="361.005" y2="-52.0023" stroke="#EEF5FD"/>
<line x1="241.005" y1="903.002" x2="241.005" y2="-52.0023" stroke="#EEF5FD"/>
<line x1="90.0046" y1="903.002" x2="90.0046" y2="-52.0023" stroke="#EEF5FD"/>
</g>
<defs>
<clipPath id="clip0">
<rect width="375" height="812" fill="white"/>
</clipPath>
</defs>
</svg>
