<svg width="701" height="566" viewBox="0 0 701 566" fill="none" xmlns="http://www.w3.org/2000/svg">
<path fill-rule="evenodd" clip-rule="evenodd" d="M352.052 0.537748C417.896 -5.40945 478.61 38.9582 526.197 84.8517C569.451 126.567 577.167 188.801 603.349 242.89C635.317 308.931 720.313 367.062 696.377 436.419C672.328 506.108 572.771 508.015 503.32 532.744C453.898 550.341 404.389 555.395 352.052 559.022C295.003 562.976 238.426 574.532 184.744 554.821C117.57 530.157 41.4892 500.375 13.249 434.625C-15.4272 367.859 6.15016 286.838 42.6597 224.013C75.4934 167.513 146.382 152.636 199.356 114.373C252.112 76.2671 287.237 6.39203 352.052 0.537748Z" fill="#C4C4C4"/>
</svg>
