<svg width="375" height="227" viewBox="0 0 375 227" fill="none" xmlns="http://www.w3.org/2000/svg">
<path fill-rule="evenodd" clip-rule="evenodd" d="M399.864 125.692C447.381 176.896 444.921 257.703 435.749 326.953C426.728 395.059 397.513 459.602 349.171 508.416C302.192 555.853 239.531 594.214 172.791 592.477C110.643 590.859 74.3251 521.938 16.2502 499.75C-48.0025 475.202 -141.267 513.933 -180.558 457.477C-219.03 402.199 -152.729 330.217 -148.518 263.001C-143.976 190.484 -199.202 108.174 -155.063 50.457C-111.345 -6.70933 -21.5616 -2.51075 50.1802 3.17982C109.132 7.85589 149.91 59.5212 205.72 79.0745C270.107 101.632 353.457 75.6838 399.864 125.692Z" fill="white"/>
</svg>
